<?xml version="1.0" encoding="utf-8"?>
<!-- Generator: Adobe Illustrator 23.0.1, SVG Export Plug-In . SVG Version: 6.00 Build 0)  -->
<svg version="1.1" id="Layer_1" xmlns="http://www.w3.org/2000/svg" xmlns:xlink="http://www.w3.org/1999/xlink" x="0px" y="0px"
	 viewBox="0 0 1559.1 697.2" style="enable-background:new 0 0 1559.1 697.2;" xml:space="preserve">
<style type="text/css">
	.st0{fill:#FFFFFF;}
	.st1{fill:#EA2027;}
</style>
<g>
	<g>
		<path class="st0" d="M208,458.6c0,8.8-2.2,17.2-6.7,25.1c-4.3,7.9-10.3,14.8-17.7,21c-7.4,6-16,10.8-26,14.3s-20.5,5.3-31.5,5.3
			c-4.1,0-7.2-0.5-9.3-1.7c-2.4-1-5-3.1-7.6-6c-7.9,17.4-14.6,33.4-19.6,47.8c-5,14.6-9.1,28.7-11.7,42.5c-6-1.4-11-3.8-14.8-7.4
			s-7.4-8.1-10.5-13.6c1.7-3.1,3.6-6.9,5.7-11.9c2.2-5,5-11,8.1-18.2s6.9-16,11.2-26c4.3-10,9.1-22,14.8-35.4
			c2.6-6.2,4.8-11.7,6.7-16.2c1.9-4.5,3.6-9.1,5-12.9c1.4-4.1,2.6-8.1,3.8-12.2c1.2-4.1,2.4-8.4,3.6-13.1
			c-7.4,2.4-14.3,5.3-20.5,8.4c-6.2,3.1-11.5,6.5-15.5,10c-1.4-1-2.9-2.4-4.5-4.3c-1.4-1.9-2.9-4.1-4.3-6.5
			c-1.2-2.4-2.4-4.5-3.3-6.9c-1-2.4-1.4-4.5-1.7-6.5c4.5-3.1,10.3-6.2,17.2-8.8c6.9-2.6,14.1-5,22-7.2c7.9-1.9,16-3.6,24.4-4.8
			s16.2-1.7,23.9-1.7c9.1,0,17.2,1.2,24.6,3.3c7.4,2.4,13.6,5.5,18.6,9.8c5,4.1,9.1,9.1,11.7,14.8C206.5,445.2,208,451.6,208,458.6z
			 M165.5,429.9c-6,0-12.2,0.5-18.6,1.4l2.9,4.3c-1.7,2.2-3.6,5.3-6,9.3s-5,9.1-7.9,14.8s-6,12.2-9.6,19.4
			c-3.3,7.2-6.9,14.8-10.8,22.7c12.4,0,23.7-1.2,33.9-3.6s18.9-5.5,26-9.6s12.9-8.8,17-14.1c4.1-5.5,6-11.2,6-17.4
			c0-8.4-2.9-14.8-8.4-19.8C184.6,432.5,176.4,429.9,165.5,429.9z"/>
		<path class="st0" d="M190.3,582.6c0.7-4.5,2.2-10.8,4.3-18.4c1.9-7.6,4.3-15.5,7.2-24.1c2.6-8.6,5.5-17.2,8.6-25.8
			s6-16.2,8.8-23.2c2.2-5,3.8-8.8,5.5-11.5c1.7-2.9,3.3-5.3,5.3-7.2c2.2,0.2,4.5,1,6.9,1.7s4.8,1.7,6.9,2.9s4.3,2.2,6,3.3
			s3.1,2.4,4.1,3.6c-4.3,5-8.1,11-11.5,17.4c-3.3,6.5-6.7,14.8-9.8,25.1c8.6-7.6,16.2-15.1,22.9-22c6.7-6.9,12.7-14.8,18.6-23.4
			c1-0.7,2.6-1.2,5-1.2c2.2,0,4.3,0.5,6.5,1.2c2.2,0.7,3.6,1.7,4.3,2.9c-2.9,7.6-4.3,15.3-4.3,22.7c0,6.9,1,12.2,3.1,15.8
			c-0.2,1-1.2,2.9-3.1,5.5s-4.3,5.3-6.7,7.6c-4.3-2.2-8.1-5.3-11.5-9.3c-3.3-3.8-5.7-8.1-7.4-12.7c-7.4,5.3-13.9,10.3-19.1,15.5
			c-5.3,5-9.8,10.5-13.4,16.7c-3.8,6.2-6.9,13.1-9.6,21c-2.6,7.9-5,17.4-7.4,28.4c-1.4-0.2-3.1-0.7-5-1.7s-4.1-1.9-6-3.1
			c-1.9-1.2-3.8-2.6-5.3-4.1C191.7,585.2,190.8,584,190.3,582.6z"/>
		<path class="st0" d="M292.6,571.3c0-1.4,0.2-3.1,0.5-5.3c0.2-2.2,0.7-5,1.2-8.6c0.7-3.6,1.4-7.9,2.4-13.1c1-5,2.4-11.2,4.1-18.4
			c0.2-1.7,1-4.1,2.2-7.6s2.6-7.2,4.5-11c1.9-3.8,4.1-7.6,6.7-11.5c2.6-3.6,5.7-6.5,9.6-8.1c2.6,0.7,6.2,2.4,10.8,4.8
			c4.5,2.6,8.4,6.2,11.5,11c-3.6,4.1-6.7,8.4-9.3,12.4c-2.4,4.1-4.8,8.4-6.7,12.9s-3.8,9.1-5.5,13.9s-3.6,9.8-5.5,15.1
			c-1.7,4.5-3.3,9.1-4.8,13.9s-2.2,8.8-2.4,12.4c0,2.9,0,4.8-0.2,6c0,1.2-0.5,1.9-1.2,1.9s-1.9-0.5-3.8-1.2c-1.9-0.7-3.8-1.9-6-3.6
			c-1.9-1.7-3.8-3.8-5.3-6.5C293.3,578,292.6,574.9,292.6,571.3z M338.2,467.7c0-1,0.2-2.4,0.7-4.3c-0.7-0.7-1.4-1.9-2.2-3.6
			c-0.5-1.7-1-3.1-1-4.3c0-1.4,0.2-3.3,0.5-6c0.5-2.4,1-5,1.4-7.9c0.7-2.9,1.4-6,2.4-9.1s1.9-6,2.9-8.4c1.9,0,4.3,0.5,6.9,1.4
			c2.9,1,5.7,2.4,8.6,4.1c2.9,1.7,5.5,3.6,7.9,5.5s4.3,3.8,5.5,5.7c-1.7,1.7-4.1,4.3-6.9,7.2c-2.9,3.1-5.7,6.5-8.4,9.8
			c-2.6,3.3-5.3,6.7-7.4,9.8c-2.2,3.1-3.6,5.3-4.3,6.5c-1.9-0.2-3.6-1.2-5-2.4C338.9,470.3,338.2,469.1,338.2,467.7z"/>
		<path class="st0" d="M438.5,550.3c-3.6,11.7-7.4,22.2-11,31.8s-7.6,18.4-11.7,26.3c-4.1,8.1-8.6,15.5-13.4,22.2
			c-4.8,6.7-10,13.1-15.8,19.1c-7.4,7.6-14.8,13.4-22.7,17.4c-7.9,4.1-15.5,6-23.4,6c-4.1,0-7.9-0.5-11.7-1.2c-3.8-1-7.6-2.2-11-3.6
			c-3.3-1.4-6.5-3.3-9.1-5.3c-2.6-1.9-4.5-4.1-5.7-6.2c0-1.9,1.2-3.6,3.3-5c1.9,1.7,3.6,3.1,4.8,4.1c1.2,1,2.4,1.7,3.6,2.4
			c1.2,0.7,2.4,1,3.8,1.2c1.4,0.2,2.9,0.2,4.8,0.2c9.1,0,17.9-2.6,26.5-8.1c8.6-5.3,17-12.9,24.6-22.7s14.8-21.7,21.3-35.6
			c6.5-13.9,11.7-29.6,16.2-46.8c-2.2,3.1-4.5,7.2-7.6,11.7s-6.5,9.1-10,13.6s-7.4,8.6-11.5,12.2c-3.8,3.6-7.6,6.2-11.5,7.4
			c-2.6,0-5.3-0.5-7.9-1.4c-2.9-1-5.5-2.2-7.9-3.8c-2.4-1.7-4.5-3.6-6.7-5.7c-1.9-2.2-3.1-4.8-3.8-7.6c0-4.5,0.2-8.4,0.5-11.2
			c0.2-2.9,1-6,1.7-9.1c1.4-6,3.6-12.9,6.2-20.5c2.9-7.6,6-15.1,9.8-22.5c3.8-7.4,7.9-14.3,12.4-20.8s9.3-11.5,14.3-15.3
			c1.2,0,2.9,0.2,4.8,0.5c1.9,0.2,3.8,0.7,6,1.2c2.2,0.7,4.1,1.4,6,2.4c1.9,1,3.6,1.9,5,3.6c-1.7,1.7-5.5,6.9-11.5,16
			s-12.4,22.2-19.6,39.2c-0.7,1.7-1.7,4.3-2.9,7.6s-2.2,6.9-3.3,10.5c-1,3.6-1.9,7.2-2.6,10.8s-1.2,6.2-1.2,8.4
			c0,1.2,0.2,2.2,0.5,2.9c0.5,0.7,0.7,1.2,1.2,1.4c2.9-0.5,6.7-2.9,11.5-7.2c4.8-4.3,10.3-10.8,16.2-19.6
			c3.8-5.7,7.4-11.5,10.5-17.2c3.1-5.7,6.2-11.5,9.3-17c3.1-5.7,6.2-11.7,9.8-17.7c3.3-6,6.9-12.2,10.8-18.6c2.2,0,4.3,0.2,6.7,0.7
			s4.8,1.2,6.9,1.9s4.3,1.4,6,2.4s2.9,1.9,3.6,2.9c-5,10.5-9.6,20.8-13.9,30.8C445.7,529.5,441.9,539.8,438.5,550.3z"/>
		<path class="st0" d="M547.9,490.8c1.7,0,3.3,0.2,5.5,1c2.2,0.5,4.1,1.2,6,2.2c1.7,1,3.3,1.9,4.5,2.9c1.2,1,1.9,1.9,1.9,2.6
			c-3.1,6.7-6.2,13.4-8.8,20.3c-2.6,6.7-5,13.1-6.9,19.6c-1.9,6.2-3.3,11.9-4.5,17.4c-1,5.5-1.4,10-1.4,14.1c0,4.5,0.5,8.1,1.4,11
			c1,2.9,2.6,5,4.8,6.5c-1.9,1.2-4.3,2.4-7.4,3.1c-3.1,0.7-5.7,1.2-8.1,1.2c-8.6,0-12.9-6-12.9-17.7c0-9.1,3.1-21.5,9.1-37.3
			c-3.1,7.4-6.9,14.1-11,20.5c-4.1,6.5-8.4,12.2-12.7,17c-4.3,5-8.6,8.8-13.1,11.9c-4.3,3.1-8.4,5-11.9,5.5c-6,0-10.8-2.6-14.3-8.1
			c-3.6-5.3-5.5-12.2-5.5-20.5c0-8.8,1.9-18.4,5.7-28.2c3.8-10,8.6-19.1,14.6-27.5s12.4-15.5,19.4-21.3c6.9-5.7,13.9-8.6,20.3-8.6
			c1.7,0.5,3.3,1.4,5.3,2.9c1.9,1.4,3.8,3.1,5.7,5c1.9,1.9,3.3,3.8,4.8,5.7c1.2,1.9,1.9,3.6,2.2,5c-6.5,1-12.9,4.1-19.6,9.3
			c-6.7,5.3-12.9,11.5-18.4,18.9c-5.5,7.4-10,15.3-13.4,23.7c-3.6,8.4-5.3,16.2-5.3,23.7c0,3.1,1.2,5,3.3,5.7c4.5-1,10-4.8,16-11.9
			c6-6.9,13.4-17.7,22-32.3c1.7-2.9,3.3-6,5.3-9.6c1.9-3.6,4.1-7.2,6-11c2.2-3.8,4.1-7.6,6.2-11.7
			C544.3,498.5,546,494.6,547.9,490.8z"/>
		<path class="st0" d="M791.4,426.3c0.5,2.6,0.7,4.5,1.2,5.7c0.2,1,0.2,2.4,0.2,4.3c0,5.3-1.2,10-3.3,14.6c-2.4,4.5-5.5,7.6-9.6,9.8
			c-3.1-4.3-7.2-8.1-11.7-11.2s-9.8-5.7-15.3-7.6c-5.5-1.9-11.2-3.6-17-4.3c-6-1-11.7-1.4-17.2-1.4c-5.5,0-10.8,0.5-15.5,1.4
			c-4.8,1-9.1,2.2-12.9,3.6c-3.8,1.4-6.7,3.3-8.8,5.5c-2.2,2.2-3.3,4.8-3.3,7.6c0.5,3.6,2.6,7.2,6.5,10.8c3.8,3.6,8.6,7.2,14.1,10.5
			c5.5,3.3,11.7,6.9,18.6,10c6.7,3.3,13.4,6.5,20.1,9.6c8.1,3.8,15.1,7.4,21,10.8s10.8,6.9,14.6,10.8s6.7,8.4,8.6,13.1
			c1.9,5,2.9,11,2.9,17.9c0,8.1-1.4,15.8-4.1,22.7c-2.6,7.2-6.7,13.4-11.9,18.6c-5.3,5.3-11.5,9.3-18.9,12.4
			c-7.4,2.9-15.5,4.3-24.6,4.3c-8.8,0-18.6-1.4-28.9-4.1c-10.3-2.6-20.1-6.5-28.9-11.2c-9.1-4.8-16.5-10-22.5-16.2
			s-9.1-12.7-9.1-19.6c0-3.1,1-7.2,2.6-12.2c1.9-5,5-10,9.8-15.5c0.5,4.8,3.1,10.5,7.6,17c4.8,6.5,11.7,12.7,21.3,18.2
			c8.8,5,17.9,8.8,27.2,11c9.3,2.4,17.9,3.6,26,3.6c8.8,0,16.2-1.2,21.7-3.3c5.5-2.2,10-4.8,13.1-7.9c3.1-3.1,5.5-6.2,6.7-9.6
			c1.2-3.1,1.9-5.7,2.2-7.6c-0.2-3.1-1.7-6.2-4.3-9.1c-2.9-2.9-6.5-5.7-11.2-8.6c-4.8-2.9-10-5.7-16.2-8.6
			c-6.2-2.9-12.7-5.7-19.4-8.6c-10-4.5-18.6-8.6-26-12.4c-7.2-3.8-13.1-7.9-17.9-11.9s-8.1-8.4-10.3-12.7c-2.2-4.5-3.3-9.6-3.3-15.3
			c0-8.8,2.6-17.4,8.1-25.3c5.5-7.9,13.1-14.1,23.4-18.2c5-2.2,10.5-3.8,16.5-4.8c5.7-1,11.5-1.4,17-1.4c10.5,0,20.8,1.4,30.8,4.3
			C771.3,418.2,781.3,422,791.4,426.3z"/>
		<path class="st0" d="M884.8,490.8c1.7,0,3.6,0.2,5.5,1c2.2,0.5,4.1,1.2,6,2.2c1.7,1,3.3,1.9,4.5,2.9c1.2,1,1.9,1.9,1.9,2.6
			c-3.1,6.7-6.2,13.4-8.8,20.3c-2.6,6.7-5,13.1-6.9,19.6c-1.9,6.2-3.3,11.9-4.3,17.4c-1,5.5-1.7,10-1.7,14.1c0,4.5,0.5,8.1,1.4,11
			c1,2.9,2.6,5,4.8,6.5c-1.9,1.2-4.3,2.4-7.4,3.1c-3.1,0.7-5.7,1.2-8.1,1.2c-8.6,0-12.9-6-12.9-17.7c0-9.1,3.1-21.5,9.1-37.3
			c-3.1,7.4-6.9,14.1-11,20.5c-4.1,6.5-8.4,12.2-12.7,17c-4.3,5-8.6,8.8-13.1,11.9c-4.3,3.1-8.4,5-11.9,5.5c-6,0-10.8-2.6-14.3-8.1
			c-3.6-5.3-5.5-12.2-5.5-20.5c0-8.8,1.9-18.4,5.7-28.2c3.8-10,8.8-19.1,14.8-27.5s12.4-15.5,19.4-21.3c6.9-5.7,13.9-8.6,20.3-8.6
			c1.7,0.5,3.3,1.4,5.3,2.9c1.9,1.4,3.8,3.1,5.7,5c1.9,1.9,3.3,3.8,4.8,5.7c1.2,1.9,1.9,3.6,2.2,5c-6.5,1-12.9,4.1-19.6,9.3
			c-6.7,5.3-12.9,11.5-18.4,18.9c-5.5,7.4-10,15.3-13.4,23.7c-3.6,8.4-5.3,16.2-5.3,23.7c0,3.1,1.2,5,3.3,5.7c4.5-1,10-4.8,16-11.9
			c6-6.9,13.4-17.7,22-32.3c1.7-2.9,3.3-6,5.3-9.6c1.9-3.6,4.1-7.2,6-11c2.2-3.8,4.1-7.6,6.2-11.7
			C881.2,498.5,882.9,494.6,884.8,490.8z"/>
		<path class="st0" d="M915.1,564.6c0-5.7,1.4-13.6,4.5-23.9c2.9-10.3,6.7-21.3,11.5-33.4c4.8-12.2,10.3-24.6,16.2-37.5
			s12.2-24.8,18.4-36.1c6.2-11.2,11.9-20.8,17.7-28.9c5.7-8.1,10.5-13.6,14.3-16.5c2.2,0.2,4.8,1.2,7.4,2.9s5,3.8,7.2,6.5
			c2.2,2.4,4.1,5,5.7,7.6c1.4,2.6,2.2,5.3,2.2,7.4c-7.2,5.7-14.6,13.1-22,22c-7.4,9.1-14.3,18.9-21,29.6
			c-6.7,10.8-12.9,22.2-18.6,34.2c-5.7,11.9-10.3,23.9-14.1,35.6c5-8.8,10.5-16.7,16-23.9c5.5-7.2,11.2-13.4,16.7-18.4
			c5.5-5,11-9.1,16.2-11.9c5.3-2.9,10.3-4.3,15.1-4.3c6.9,5,10.5,11.9,10.5,20.3c0,5-1,10.3-3.1,15.3c-2.2,5.3-4.8,10-8.4,14.3
			c-3.3,4.3-7.4,8.1-11.7,11.2c-4.3,3.1-8.8,5-13.6,6c1.7,5.5,3.6,11.2,6,17c2.4,5.7,5.5,11.2,8.8,16.7c3.3,5.5,7.4,10.5,11.7,15.1
			c4.3,4.5,9.3,8.6,14.8,11.7c-0.7,1.7-1.9,3.1-3.6,4.8c-1.7,1.7-3.6,2.9-5.7,4.3s-4.5,2.2-7.2,2.9c-2.6,0.7-5.3,1.2-7.6,1.2
			c-4.3,0-8.4-2.2-11.9-6.5c-3.8-4.3-7.2-10.5-10-18.6c-2.4-6.5-4.8-14.3-6.9-23.4c-2.2-9.1-4.3-18.6-6-28.4c2.2-1.4,5-3.6,8.4-6.2
			c3.3-2.9,6.9-6,10.5-9.6c14.1-13.6,21-25.1,21-35.1c0-1.2-1-1.9-2.6-1.9c-3.1,0-6.9,1.4-11.2,4.3c-4.3,2.9-8.8,6.9-13.9,11.9
			c-4.8,5-9.8,11-14.8,17.9c-5,6.9-9.8,14.3-14.3,22.2c-1.9,3.1-3.6,6.9-5.3,11c-1.7,4.1-2.9,8.4-4.3,12.9
			c-1.2,4.3-2.2,8.8-2.9,13.1c-0.7,4.3-1,8.4-1,11.9c0,2.2,0.2,4.1,0.7,5.5c-5-0.5-7.9-1.7-9.1-3.8c-1.2-1.9-2.4-3.6-3.3-4.8
			s-1.9-2.2-2.6-2.9c-1.4-1.2-2.6-3.6-3.6-7.2C915.6,574.9,915.1,570.1,915.1,564.6z"/>
		<path class="st0" d="M1034.3,583.3c0-5.5,0.5-12.2,1.7-19.6c1.2-7.6,2.9-15.5,4.8-24.1c2.2-8.6,4.8-17.7,7.6-27
			c2.9-9.3,6.2-18.9,10-28.2c3.1-8.4,6.9-17,11-25.6c4.3-8.6,8.8-17,13.9-25.3c5-8.4,10-16.2,15.5-23.7c5.3-7.4,10.8-14.3,16.2-20.5
			c2.6,0,5.3,0.2,8.4,1c2.9,0.7,5.7,1.4,8.6,2.4c2.9,1,5.3,2.4,7.6,3.6c2.4,1.4,4.3,2.9,5.7,4.3c-11.9,12.2-22.7,24.6-32.3,37
			s-17.2,24.4-22.7,35.4c-3.1,6-5.7,11.7-8.4,17c-2.4,5.3-4.8,10.5-6.9,15.5c-2.2,5.3-3.8,10.3-5.5,15.5c-1.7,5.3-3.1,10.8-4.8,16.2
			c30.6-38.9,53.3-58.5,68.1-58.5c4.1,0,8.6,1.4,13.4,4.1c4.8,2.6,9.1,6.5,12.7,11c-5,5.5-10,11.9-15.3,19.6
			c-5.3,7.6-10,15.3-14.3,23.2c-4.3,7.6-7.9,14.8-10.8,21.5c-2.9,6.7-4.3,11.5-4.3,14.8c0,1.7,0.2,2.6,0.7,3.1
			c0.5,0.5,1.4,0.7,3.1,0.7c2.4,0,4.3-0.2,5.7-1c1.4-0.7,2.4-1,2.6-1c0.7,1.2,1.2,2.2,1.4,2.6c0.2,0.5,0.2,1,0.2,1.2
			c0,0.7-1,1.4-2.9,2.6s-4.3,2.4-6.7,3.6s-5.3,2.4-7.6,3.3c-2.6,1-4.5,1.4-5.7,1.4c-1.7,0-3.1-0.5-4.8-1.2c-1.7-1-2.9-2.2-4.3-3.6
			c-1.4-1.4-2.2-3.1-2.9-4.8c-0.7-1.7-1.2-3.6-1.2-5.5c0-2.4,0.7-6,1.9-10.8c1.4-4.8,3.3-10.3,5.7-16.5c2.4-6.2,5.3-13.1,8.6-20.5
			c3.3-7.4,6.9-15.1,10.8-22.9c0-0.7-0.2-1-1-1c-0.5,0-1.7,0.7-3.6,1.9s-3.8,2.6-5.5,3.8c-5.7,4.3-11.5,9.6-17.2,16
			c-5.7,6.2-11.5,13.1-17,20.8c-5.5,7.4-10.8,15.3-15.5,23.7s-9.1,16.7-12.4,25.3c-0.5,1.2-1.2,2.2-2.2,3.1c-1,1-1.7,1.4-2.4,1.4
			c-0.5,0-1.2-0.5-2.2-1.7c-1-1.2-1.7-2.4-2.4-4.3c-0.7-1.7-1.4-3.3-1.9-5C1034.5,586.1,1034.3,584.7,1034.3,583.3z"/>
		<path class="st0" d="M1158.3,571.3c0-1.4,0-3.1,0.5-5.3c0.2-2.2,0.7-5,1.2-8.6c0.7-3.6,1.4-7.9,2.4-13.1c1-5,2.4-11.2,4.1-18.4
			c0.2-1.7,1-4.1,2.2-7.6s2.6-7.2,4.5-11c1.9-3.8,4.1-7.6,6.7-11.5c2.6-3.6,5.7-6.5,9.6-8.1c2.6,0.7,6.2,2.4,10.8,4.8
			c4.5,2.6,8.4,6.2,11.5,11c-3.6,4.1-6.7,8.4-9.1,12.4c-2.4,4.1-4.8,8.4-6.7,12.9s-3.8,9.1-5.5,13.9s-3.6,9.8-5.5,15.1
			c-1.7,4.5-3.3,9.1-4.8,13.9c-1.4,4.8-2.2,8.8-2.4,12.4c0,2.9,0,4.8,0,6s-0.5,1.9-1.4,1.9c-0.7,0-1.9-0.5-3.8-1.2
			c-1.9-0.7-3.8-1.9-6-3.6c-1.9-1.7-3.8-3.8-5.3-6.5C1159,578,1158.3,574.9,1158.3,571.3z M1203.9,467.7c0-1,0.2-2.4,0.7-4.3
			c-0.7-0.7-1.4-1.9-2.2-3.6c-0.5-1.7-0.7-3.1-0.7-4.3c0-1.4,0.2-3.3,0.5-6c0.5-2.4,1-5,1.7-7.9s1.4-6,2.4-9.1c1-3.1,1.9-6,2.9-8.4
			c1.9,0,4.3,0.5,7.2,1.4c2.9,1,5.7,2.4,8.4,4.1c2.9,1.7,5.5,3.6,7.9,5.5s4.3,3.8,5.5,5.7c-1.7,1.7-4.1,4.3-6.9,7.2
			s-5.7,6.5-8.4,9.8c-2.6,3.3-5.3,6.7-7.4,9.8c-2.2,3.1-3.6,5.3-4.3,6.5c-1.9-0.2-3.6-1.2-5-2.4
			C1204.6,470.3,1203.9,469.1,1203.9,467.7z"/>
	</g>
</g>
<g>
	<path class="st1" d="M1389.3,303.8c1-4.3,1-9.1,2.9-12.7c20.5-38.9,13.4-75.5-8.4-111.6c-10.8-17.9-21.7-36.3-28.2-55.9
		c-12.4-37,1.4-80.3,30.1-100.8c5.5-4.1,11.9-6.5,19.6-7.9c-2.2,2.4-4.3,4.8-6.7,6.9c-31.8,26.5-43.2,67.8-28.2,106.3
		c6,15.1,14.3,29.4,22.9,43.2c22.7,36.8,30.1,75,11.9,115.9c-2.9,6.5-7.4,12.2-11.2,18.2C1392.4,305,1391,304.5,1389.3,303.8z"/>
	<path class="st1" d="M1201.3,380c29.9-46.8,71.7-73.6,128-73.3c18.6,0.2,37.3,1.4,55.7,4.1c26.5,3.6,44.7-8.6,60-28.2
		c16.5-21.5,21.7-47.1,28-72.4c4.3-17.4,6.7-21.3,18.2-27.2c-11,31.3-20.3,63.3-33.4,93.6c-15.3,35.4-45.6,49.2-83.6,43.5
		c-13.4-2.2-26.8-4.5-40.1-5.3c-49.9-3.3-89.6,17.4-122.1,54.2c-2.9,3.1-5.5,6.2-8.4,9.6C1203,379,1202,379.5,1201.3,380z"/>
	<path class="st1" d="M1302.3,246.9c-27.2-39.4-29.4-84.6-14.8-131.2c12.2-38.9,43.5-74.1,72.1-80c-6.7,7.6-10.8,13.6-15.8,18.4
		c-37.3,33.7-58.8,75.3-55.9,126.1C1289,203.2,1297.6,225.9,1302.3,246.9z"/>
	<path class="st1" d="M1218.3,373.3c26-27.5,68.3-30.8,101.8-9.3c13.4-9.8,27.2-19.6,42.3-30.6c-2.6,13.1-21,28.9-46.1,41.8
		C1286.1,344.6,1253.4,359.2,1218.3,373.3z"/>
	<path class="st1" d="M1434.5,190.5c2.4-23.2,19.4-39.7,40.4-40.1c20.8-0.7,33.4,9.6,38.7,34.9c-12.9-15.8-21.7-32-42.3-28.2
		C1451.9,160.2,1442.8,174.8,1434.5,190.5z"/>
</g>
</svg>
